<svg
  xmlns="http://www.w3.org/2000/svg"
  xmlns:xlink="http://www.w3.org/1999/xlink"
  width="18px"
  height="18px"
  viewBox="0 0 18 18"
  version="1.1"
>
<g id="surface1">
<path style=" stroke:none;fill-rule:nonzero;fill:rgb(12.941176%,12.941176%,12.941176%);fill-opacity:1;" d="M 14.785156 15.75 L 3.214844 15.75 C 2.683594 15.75 2.25 15.316406 2.25 14.785156 L 2.25 3.214844 C 2.25 2.683594 2.683594 2.25 3.214844 2.25 L 14.785156 2.25 C 15.316406 2.25 15.75 2.683594 15.75 3.214844 L 15.75 14.785156 C 15.75 15.316406 15.316406 15.75 14.785156 15.75 Z M 15.75 0.320312 L 2.25 0.320312 C 1.1875 0.320312 0.320312 1.1875 0.320312 2.25 L 0.320312 15.75 C 0.320312 16.8125 1.1875 17.679688 2.25 17.679688 L 15.75 17.679688 C 16.8125 17.679688 17.679688 16.8125 17.679688 15.75 L 17.679688 2.25 C 17.679688 1.1875 16.8125 0.320312 15.75 0.320312 Z M 15.75 0.320312 "/>
</g>
</svg>
